<?xml version="1.0" encoding="UTF-8" standalone="no"?>
<!-- Generator: Adobe Illustrator 21.1.0, SVG Export Plug-In . SVG Version: 6.00 Build 0)  -->

<svg
   xmlns:dc="http://purl.org/dc/elements/1.1/"
   xmlns:cc="http://creativecommons.org/ns#"
   xmlns:rdf="http://www.w3.org/1999/02/22-rdf-syntax-ns#"
   xmlns:svg="http://www.w3.org/2000/svg"
   xmlns="http://www.w3.org/2000/svg"
   xmlns:sodipodi="http://sodipodi.sourceforge.net/DTD/sodipodi-0.dtd"
   xmlns:inkscape="http://www.inkscape.org/namespaces/inkscape"
   version="1.1"
   id="레이어_1"
   x="0px"
   y="0px"
   viewBox="0 0 900 300"
   xml:space="preserve"
   sodipodi:docname="logo_fullwidth.svg"
   width="900"
   height="300"
   inkscape:version="0.92.1 r15371"><metadata
     id="metadata24428"><rdf:RDF><cc:Work
         rdf:about=""><dc:format>image/svg+xml</dc:format><dc:type
           rdf:resource="http://purl.org/dc/dcmitype/StillImage" /><dc:title></dc:title></cc:Work></rdf:RDF></metadata><defs
     id="defs24426" /><sodipodi:namedview
     pagecolor="#ffffff"
     bordercolor="#666666"
     borderopacity="1"
     objecttolerance="10"
     gridtolerance="10"
     guidetolerance="10"
     inkscape:pageopacity="0"
     inkscape:pageshadow="2"
     inkscape:window-width="1920"
     inkscape:window-height="1011"
     id="namedview24424"
     showgrid="false"
     inkscape:zoom="0.59666667"
     inkscape:cx="300"
     inkscape:cy="150"
     inkscape:window-x="0"
     inkscape:window-y="27"
     inkscape:window-maximized="1"
     inkscape:current-layer="레이어_1"
     inkscape:pagecheckerboard="true" /><style
     type="text/css"
     id="style24365">
	.st0{fill:none;stroke:#FFFFFF;stroke-width:6;stroke-linecap:round;stroke-miterlimit:6;}
	.st1{fill:#7DAAD3;}
	.st2{fill:#FFFFFF;}
</style><g
     id="g24411"
     transform="matrix(1.6730215,0,0,1.6730215,-94.54333,-101.59516)"><g
       id="g24371"><path
         class="st0"
         d="m 207.1,136.5 33.7,-13.1 c 11.2,-2.8 8.4,-7.5 8.4,-7.5 V 80.4"
         id="path24367"
         inkscape:connector-curvature="0"
         style="fill:none;stroke:#ffffff;stroke-width:6;stroke-linecap:round;stroke-miterlimit:6" /><path
         class="st0"
         d="m 293.1,136.5 -33.7,-13.1 c -11.2,-2.8 -8.4,-7.5 -8.4,-7.5 V 80.4"
         id="path24369"
         inkscape:connector-curvature="0"
         style="fill:none;stroke:#ffffff;stroke-width:6;stroke-linecap:round;stroke-miterlimit:6" /></g><g
       id="g24377"><path
         class="st0"
         d="m 417.7,82.2 h -47.3 c 0,0 -14.1,-0.3 -14.3,7.4 V 104"
         id="path24373"
         inkscape:connector-curvature="0"
         style="fill:none;stroke:#ffffff;stroke-width:6;stroke-linecap:round;stroke-miterlimit:6" /><path
         class="st0"
         d="m 417.7,125.9 h -47.3 c 0,0 -14.1,0.3 -14.3,-7.4 V 104"
         id="path24375"
         inkscape:connector-curvature="0"
         style="fill:none;stroke:#ffffff;stroke-width:6;stroke-linecap:round;stroke-miterlimit:6" /></g><g
       id="g24387"><path
         class="st0"
         d="m 541.1,82.2 h -37.9 c 0,0 -11.3,-0.3 -11.4,7.4 V 104"
         id="path24379"
         inkscape:connector-curvature="0"
         style="fill:none;stroke:#ffffff;stroke-width:6;stroke-linecap:round;stroke-miterlimit:6" /><path
         class="st0"
         d="m 541.1,125.9 h -37.9 c 0,0 -11.3,0.3 -11.4,-7.4 V 104"
         id="path24381"
         inkscape:connector-curvature="0"
         style="fill:none;stroke:#ffffff;stroke-width:6;stroke-linecap:round;stroke-miterlimit:6" /><path
         class="st0"
         d="m 504.9,82.2 h 33.9 c 0,0 10.1,-0.3 10.2,7.4 V 104"
         id="path24383"
         inkscape:connector-curvature="0"
         style="fill:none;stroke:#ffffff;stroke-width:6;stroke-linecap:round;stroke-miterlimit:6" /><path
         class="st0"
         d="m 504.9,125.9 h 33.9 c 0,0 10.1,0.3 10.2,-7.4 V 104"
         id="path24385"
         inkscape:connector-curvature="0"
         style="fill:none;stroke:#ffffff;stroke-width:6;stroke-linecap:round;stroke-miterlimit:6" /></g><g
       id="g24393"><line
         class="st0"
         x1="386.89999"
         y1="144.89999"
         x2="386.89999"
         y2="167"
         id="line24389"
         style="fill:none;stroke:#ffffff;stroke-width:6;stroke-linecap:round;stroke-miterlimit:6" /><line
         class="st0"
         x1="332.39999"
         y1="167"
         x2="441.39999"
         y2="167"
         id="line24391"
         style="fill:none;stroke:#ffffff;stroke-width:6;stroke-linecap:round;stroke-miterlimit:6" /></g><g
       id="g24399"><line
         class="st0"
         x1="520.40002"
         y1="152.8"
         x2="520.40002"
         y2="175"
         id="line24395"
         style="fill:none;stroke:#ffffff;stroke-width:6;stroke-linecap:round;stroke-miterlimit:6" /><line
         class="st0"
         x1="465.89999"
         y1="152.8"
         x2="574.90002"
         y2="152.8"
         id="line24397"
         style="fill:none;stroke:#ffffff;stroke-width:6;stroke-linecap:round;stroke-miterlimit:6" /></g><g
       id="g24405"><line
         class="st0"
         x1="249.5"
         y1="170.39999"
         x2="249.5"
         y2="220.8"
         id="line24401"
         style="fill:none;stroke:#ffffff;stroke-width:6;stroke-linecap:round;stroke-miterlimit:6" /><line
         class="st0"
         x1="195"
         y1="170.39999"
         x2="304"
         y2="170.39999"
         id="line24403"
         style="fill:none;stroke:#ffffff;stroke-width:6;stroke-linecap:round;stroke-miterlimit:6" /></g><path
       class="st0"
       d="m 356.1,182.6 v 25.8 c 0,0 -0.7,10.7 19.5,10.7 20.3,0 49,0 49,0 h 1.8"
       id="path24407"
       inkscape:connector-curvature="0"
       style="fill:none;stroke:#ffffff;stroke-width:6;stroke-linecap:round;stroke-miterlimit:6" /><path
       class="st0"
       d="m 484.7,178.8 h 61.5 c 0,0 5.2,0.8 5.2,6.3 0,5.2 0,7.6 0,7.6 0,0 -0.2,6.1 -5.2,6.1 -5.8,0 -50,-0.3 -50.1,0 0,0 -7.1,1.8 -7.1,7.6 0,6.5 0,7.7 0,7.7 0,0 0.8,4.9 7.9,4.9 8,0 59.2,0 59.2,0"
       id="path24409"
       inkscape:connector-curvature="0"
       style="fill:none;stroke:#ffffff;stroke-width:6;stroke-linecap:round;stroke-miterlimit:6" /></g><path
     class="st1"
     d="M 170.6,201.3 C 162.4,86.3 91.3,11.8 91.3,11.8 v 0 0 c 0,0 -71.1,74.5 -79.3,189.5 -0.3,3 -0.5,6 -0.5,9.1 0,44.1 35.7,79.8 79.8,79.8 v 0 0 c 44.1,0 79.8,-35.7 79.8,-79.8 0.1,-3.1 -0.1,-6.1 -0.5,-9.1 z"
     id="path24413"
     inkscape:connector-curvature="0"
     style="fill:#7daad3" /><g
     id="g24421"><circle
       class="st2"
       cx="77"
       cy="169.5"
       r="6.5"
       id="circle24415"
       style="fill:#ffffff" /><circle
       class="st2"
       cx="77"
       cy="206.3"
       r="6.5"
       id="circle24417"
       style="fill:#ffffff" /><path
       class="st2"
       d="m 98.4,136.9 -4.6,2.3 c 11.4,15.5 11.3,45.6 11.3,45.6 0,0 0.1,30.1 -11.3,45.6 l 4.6,2.3 c 0,0 14.2,-19.9 13.7,-47.9 0.5,-27.9 -13.7,-47.9 -13.7,-47.9 z"
       id="path24419"
       inkscape:connector-curvature="0"
       style="fill:#ffffff" /></g></svg>